<mxfile host="Electron" agent="Mozilla/5.0 (Windows NT 10.0; Win64; x64) AppleWebKit/537.36 (KHTML, like Gecko) draw.io/27.0.9 Chrome/134.0.6998.205 Electron/35.4.0 Safari/537.36" version="27.0.9">
  <diagram name="Page-1" id="ss8VR1ncHQ168FWeejS1">
    <mxGraphModel dx="1281" dy="660" grid="1" gridSize="10" guides="1" tooltips="1" connect="1" arrows="1" fold="1" page="1" pageScale="1" pageWidth="850" pageHeight="1100" math="0" shadow="0">
      <root>
        <mxCell id="0" />
        <mxCell id="1" parent="0" />
        <mxCell id="uYbO8oaeognfNFXTw1t--24" style="edgeStyle=orthogonalEdgeStyle;rounded=0;orthogonalLoop=1;jettySize=auto;html=1;entryX=0.833;entryY=1.033;entryDx=0;entryDy=0;exitX=0.5;exitY=1;exitDx=0;exitDy=0;entryPerimeter=0;" edge="1" parent="1" source="uYbO8oaeognfNFXTw1t--1" target="uYbO8oaeognfNFXTw1t--6">
          <mxGeometry relative="1" as="geometry" />
        </mxCell>
        <mxCell id="uYbO8oaeognfNFXTw1t--25" value="Message/Button&lt;div&gt;[Text]&lt;/div&gt;" style="edgeLabel;html=1;align=center;verticalAlign=middle;resizable=0;points=[];" vertex="1" connectable="0" parent="uYbO8oaeognfNFXTw1t--24">
          <mxGeometry x="-0.075" y="-3" relative="1" as="geometry">
            <mxPoint x="14" y="3" as="offset" />
          </mxGeometry>
        </mxCell>
        <mxCell id="uYbO8oaeognfNFXTw1t--1" value="User" style="rounded=1;whiteSpace=wrap;html=1;" vertex="1" parent="1">
          <mxGeometry x="690" y="530" width="120" height="60" as="geometry" />
        </mxCell>
        <mxCell id="uYbO8oaeognfNFXTw1t--2" value="Error chat" style="rounded=1;whiteSpace=wrap;html=1;" vertex="1" parent="1">
          <mxGeometry x="460" y="660" width="120" height="60" as="geometry" />
        </mxCell>
        <mxCell id="uYbO8oaeognfNFXTw1t--8" style="edgeStyle=orthogonalEdgeStyle;rounded=0;orthogonalLoop=1;jettySize=auto;html=1;entryX=0;entryY=0.25;entryDx=0;entryDy=0;exitX=0.25;exitY=1;exitDx=0;exitDy=0;" edge="1" parent="1" source="uYbO8oaeognfNFXTw1t--3" target="uYbO8oaeognfNFXTw1t--6">
          <mxGeometry relative="1" as="geometry" />
        </mxCell>
        <mxCell id="uYbO8oaeognfNFXTw1t--9" value="Error Trigger" style="edgeLabel;html=1;align=center;verticalAlign=middle;resizable=0;points=[];" vertex="1" connectable="0" parent="uYbO8oaeognfNFXTw1t--8">
          <mxGeometry x="-0.1" y="1" relative="1" as="geometry">
            <mxPoint as="offset" />
          </mxGeometry>
        </mxCell>
        <mxCell id="uYbO8oaeognfNFXTw1t--10" value="" style="edgeStyle=orthogonalEdgeStyle;rounded=0;orthogonalLoop=1;jettySize=auto;html=1;" edge="1" parent="1" source="uYbO8oaeognfNFXTw1t--3" target="uYbO8oaeognfNFXTw1t--5">
          <mxGeometry relative="1" as="geometry" />
        </mxCell>
        <mxCell id="uYbO8oaeognfNFXTw1t--17" value="Expected&lt;div&gt;Trigger&lt;/div&gt;" style="edgeLabel;html=1;align=center;verticalAlign=middle;resizable=0;points=[];" vertex="1" connectable="0" parent="uYbO8oaeognfNFXTw1t--10">
          <mxGeometry x="-0.125" relative="1" as="geometry">
            <mxPoint as="offset" />
          </mxGeometry>
        </mxCell>
        <mxCell id="uYbO8oaeognfNFXTw1t--18" style="edgeStyle=orthogonalEdgeStyle;rounded=0;orthogonalLoop=1;jettySize=auto;html=1;entryX=0.25;entryY=1;entryDx=0;entryDy=0;exitX=0.75;exitY=1;exitDx=0;exitDy=0;" edge="1" parent="1" source="uYbO8oaeognfNFXTw1t--3" target="uYbO8oaeognfNFXTw1t--5">
          <mxGeometry relative="1" as="geometry" />
        </mxCell>
        <mxCell id="uYbO8oaeognfNFXTw1t--20" value="Unexpected&lt;div&gt;Trigger&lt;/div&gt;" style="edgeLabel;html=1;align=center;verticalAlign=middle;resizable=0;points=[];" vertex="1" connectable="0" parent="uYbO8oaeognfNFXTw1t--18">
          <mxGeometry x="-0.0267" relative="1" as="geometry">
            <mxPoint as="offset" />
          </mxGeometry>
        </mxCell>
        <mxCell id="uYbO8oaeognfNFXTw1t--3" value="Bot Logic" style="rounded=1;whiteSpace=wrap;html=1;" vertex="1" parent="1">
          <mxGeometry x="360" y="80" width="120" height="60" as="geometry" />
        </mxCell>
        <mxCell id="uYbO8oaeognfNFXTw1t--11" value="" style="edgeStyle=orthogonalEdgeStyle;rounded=0;orthogonalLoop=1;jettySize=auto;html=1;" edge="1" parent="1" source="uYbO8oaeognfNFXTw1t--4" target="uYbO8oaeognfNFXTw1t--3">
          <mxGeometry relative="1" as="geometry" />
        </mxCell>
        <mxCell id="uYbO8oaeognfNFXTw1t--4" value="Trigger" style="rounded=1;whiteSpace=wrap;html=1;" vertex="1" parent="1">
          <mxGeometry x="200" y="80" width="120" height="60" as="geometry" />
        </mxCell>
        <mxCell id="uYbO8oaeognfNFXTw1t--13" style="edgeStyle=orthogonalEdgeStyle;rounded=0;orthogonalLoop=1;jettySize=auto;html=1;entryX=1;entryY=0.25;entryDx=0;entryDy=0;" edge="1" parent="1" source="uYbO8oaeognfNFXTw1t--5" target="uYbO8oaeognfNFXTw1t--6">
          <mxGeometry relative="1" as="geometry" />
        </mxCell>
        <mxCell id="uYbO8oaeognfNFXTw1t--5" value="Action" style="rounded=1;whiteSpace=wrap;html=1;" vertex="1" parent="1">
          <mxGeometry x="560" y="80" width="120" height="60" as="geometry" />
        </mxCell>
        <mxCell id="uYbO8oaeognfNFXTw1t--14" style="edgeStyle=orthogonalEdgeStyle;rounded=0;orthogonalLoop=1;jettySize=auto;html=1;entryX=0.5;entryY=0;entryDx=0;entryDy=0;" edge="1" parent="1" source="uYbO8oaeognfNFXTw1t--6" target="uYbO8oaeognfNFXTw1t--2">
          <mxGeometry relative="1" as="geometry" />
        </mxCell>
        <mxCell id="uYbO8oaeognfNFXTw1t--27" value="Error Action" style="edgeLabel;html=1;align=center;verticalAlign=middle;resizable=0;points=[];" vertex="1" connectable="0" parent="uYbO8oaeognfNFXTw1t--14">
          <mxGeometry x="0.3333" y="-1" relative="1" as="geometry">
            <mxPoint as="offset" />
          </mxGeometry>
        </mxCell>
        <mxCell id="uYbO8oaeognfNFXTw1t--15" style="edgeStyle=orthogonalEdgeStyle;rounded=0;orthogonalLoop=1;jettySize=auto;html=1;exitX=0.25;exitY=1;exitDx=0;exitDy=0;entryX=0.5;entryY=1;entryDx=0;entryDy=0;" edge="1" parent="1" source="uYbO8oaeognfNFXTw1t--6" target="uYbO8oaeognfNFXTw1t--7">
          <mxGeometry relative="1" as="geometry">
            <mxPoint x="80" y="270" as="targetPoint" />
            <Array as="points">
              <mxPoint x="490" y="560" />
              <mxPoint x="90" y="560" />
            </Array>
          </mxGeometry>
        </mxCell>
        <mxCell id="uYbO8oaeognfNFXTw1t--23" value="user_id&lt;div&gt;Text / Button&lt;/div&gt;&lt;div&gt;[WebHook]&lt;/div&gt;" style="edgeLabel;html=1;align=center;verticalAlign=middle;resizable=0;points=[];" vertex="1" connectable="0" parent="uYbO8oaeognfNFXTw1t--15">
          <mxGeometry x="0.05" y="1" relative="1" as="geometry">
            <mxPoint as="offset" />
          </mxGeometry>
        </mxCell>
        <mxCell id="uYbO8oaeognfNFXTw1t--28" style="edgeStyle=orthogonalEdgeStyle;rounded=0;orthogonalLoop=1;jettySize=auto;html=1;entryX=0.5;entryY=0;entryDx=0;entryDy=0;exitX=1;exitY=0.75;exitDx=0;exitDy=0;" edge="1" parent="1" source="uYbO8oaeognfNFXTw1t--6" target="uYbO8oaeognfNFXTw1t--1">
          <mxGeometry relative="1" as="geometry" />
        </mxCell>
        <mxCell id="uYbO8oaeognfNFXTw1t--29" value="Expected and Unexpected actions" style="edgeLabel;html=1;align=center;verticalAlign=middle;resizable=0;points=[];" vertex="1" connectable="0" parent="uYbO8oaeognfNFXTw1t--28">
          <mxGeometry x="0.0341" relative="1" as="geometry">
            <mxPoint as="offset" />
          </mxGeometry>
        </mxCell>
        <mxCell id="uYbO8oaeognfNFXTw1t--6" value="Text Provider" style="rounded=1;whiteSpace=wrap;html=1;" vertex="1" parent="1">
          <mxGeometry x="460" y="450" width="120" height="60" as="geometry" />
        </mxCell>
        <mxCell id="uYbO8oaeognfNFXTw1t--12" style="edgeStyle=orthogonalEdgeStyle;rounded=0;orthogonalLoop=1;jettySize=auto;html=1;entryX=0;entryY=0.5;entryDx=0;entryDy=0;exitX=0.5;exitY=0;exitDx=0;exitDy=0;" edge="1" parent="1" source="uYbO8oaeognfNFXTw1t--7" target="uYbO8oaeognfNFXTw1t--4">
          <mxGeometry relative="1" as="geometry" />
        </mxCell>
        <mxCell id="uYbO8oaeognfNFXTw1t--16" value="user_id&lt;div&gt;Text / Button&lt;/div&gt;" style="edgeLabel;html=1;align=center;verticalAlign=middle;resizable=0;points=[];" vertex="1" connectable="0" parent="uYbO8oaeognfNFXTw1t--12">
          <mxGeometry x="0.05" y="-2" relative="1" as="geometry">
            <mxPoint as="offset" />
          </mxGeometry>
        </mxCell>
        <mxCell id="uYbO8oaeognfNFXTw1t--7" value="Serverless Provider" style="rounded=1;whiteSpace=wrap;html=1;" vertex="1" parent="1">
          <mxGeometry x="30" y="320" width="120" height="60" as="geometry" />
        </mxCell>
        <object placeholders="1" c4Name="Bot" c4Type="ContainerScopeBoundary" c4Application="Container" label="&lt;font style=&quot;font-size: 16px&quot;&gt;&lt;b&gt;&lt;div style=&quot;text-align: left&quot;&gt;%c4Name%&lt;/div&gt;&lt;/b&gt;&lt;/font&gt;&lt;div style=&quot;text-align: left&quot;&gt;[%c4Application%]&lt;/div&gt;" id="uYbO8oaeognfNFXTw1t--21">
          <mxCell style="rounded=1;fontSize=11;whiteSpace=wrap;html=1;dashed=1;arcSize=20;fillColor=none;strokeColor=#666666;fontColor=#333333;labelBackgroundColor=none;align=left;verticalAlign=bottom;labelBorderColor=none;spacingTop=0;spacing=10;dashPattern=8 4;metaEdit=1;rotatable=0;perimeter=rectanglePerimeter;noLabel=0;labelPadding=0;allowArrows=0;connectable=0;expand=0;recursiveResize=0;editable=1;pointerEvents=0;absoluteArcSize=1;points=[[0.25,0,0],[0.5,0,0],[0.75,0,0],[1,0.25,0],[1,0.5,0],[1,0.75,0],[0.75,1,0],[0.5,1,0],[0.25,1,0],[0,0.75,0],[0,0.5,0],[0,0.25,0]];" vertex="1" parent="1">
            <mxGeometry x="160" y="60" width="560" height="130" as="geometry" />
          </mxCell>
        </object>
        <mxCell id="uYbO8oaeognfNFXTw1t--33" value="Expected and&lt;div&gt;Unexpected actions&lt;/div&gt;" style="edgeLabel;html=1;align=center;verticalAlign=middle;resizable=0;points=[];" vertex="1" connectable="0" parent="1">
          <mxGeometry x="620" y="310" as="geometry">
            <mxPoint x="8" y="-4" as="offset" />
          </mxGeometry>
        </mxCell>
        <mxCell id="uYbO8oaeognfNFXTw1t--34" value="*Required TOKEN&lt;div&gt;&amp;amp; additional cfgs&lt;/div&gt;" style="text;html=1;align=center;verticalAlign=middle;resizable=0;points=[];autosize=1;strokeColor=none;fillColor=none;" vertex="1" parent="1">
          <mxGeometry x="460" y="400" width="120" height="40" as="geometry" />
        </mxCell>
      </root>
    </mxGraphModel>
  </diagram>
</mxfile>
